<svg id="box" xmlns="http://www.w3.org/2000/svg" viewBox="0 0 400.5 270.82">
    <defs>
        <clipPath id="clip-path" transform="translate(-199.5 -264.59)">
            <path d="M536.59,303l14.74-1c.07,0,.14.06.21.2l-14.73,1C536.74,303,536.66,303,536.59,303Z" fill="#a7a9ac"
                  stroke="#fff" stroke-linecap="square" stroke-linejoin="round"/>
        </clipPath>
        <clipPath id="clip-path-2" transform="translate(-199.5 -264.59)">
            <path d="M568.8,417.39l-14.74,1c.29,0,.5-1.19.53-3l14.73-1C569.3,416.2,569.08,417.37,568.8,417.39Z"
                  fill="#a7a9ac" stroke="#fff" stroke-linecap="square" stroke-linejoin="round"/>
        </clipPath>
        <clipPath id="clip-path-3" transform="translate(-199.5 -264.59)">
            <path d="M570.3,342.05l-14.73,1a16.07,16.07,0,0,0-.64-5.4l14.73-1A16,16,0,0,1,570.3,342.05Z" fill="#a7a9ac"
                  stroke="#fff" stroke-linecap="square" stroke-linejoin="round"/>
        </clipPath>
        <clipPath id="clip-path-4" transform="translate(-199.5 -264.59)">
            <path id="SVGID"
                  d="M541.3,499.82V425h27.36v74.79l-9.8.07s-4.69-6.39-5-5.71l-3,5.71S541.46,500.21,541.3,499.82Z"
                  fill="#a7a9ac"/>
        </clipPath>
        <clipPath id="clip-path-5" transform="translate(-199.5 -264.59)">
            <path id="SVGID-2"
                  d="M242.65,498.92V448h54.71v51.39c-.09.13-9.49-.08-9.49-.08s-2.87-4.24-3-4.27c-.45-.08-6,3.78-6,3.78l-8.81.05-9.8.05s-4.69-4.35-5-3.88l-3,3.88S242.81,499.19,242.65,498.92Z"
                  fill="#a7a9ac"/>
        </clipPath>
    </defs>
    <g id="feet">
        <path id="right"
              d="M567.15,535.41H534.94a.34.34,0,0,1-.34-.34v-1.54a.34.34,0,0,1,.34-.34h32.21a.34.34,0,0,1,.34.34v1.54A.34.34,0,0,1,567.15,535.41Zm.34-9.35v-1.54a.34.34,0,0,0-.34-.34H534.94a.34.34,0,0,0-.34.34v1.54a.34.34,0,0,0,.34.34h32.21A.34.34,0,0,0,567.49,526.06Zm0,3v-1.55a.34.34,0,0,0-.34-.34H534.94a.34.34,0,0,0-.34.34v1.55a.34.34,0,0,0,.34.33h32.21A.34.34,0,0,0,567.49,529.07Zm0,3v-1.54a.34.34,0,0,0-.34-.34H534.94a.34.34,0,0,0-.34.34v1.54a.34.34,0,0,0,.34.34h32.21A.34.34,0,0,0,567.49,532.07Zm0-9v-1.54a.34.34,0,0,0-.34-.34H534.94a.34.34,0,0,0-.34.34v1.54a.34.34,0,0,0,.34.34h32.21A.34.34,0,0,0,567.49,523.06Z"
              transform="translate(-199.5 -264.59)" fill="#fff" fill-opacity="0.5"/>
        <path id="left"
              d="M300.89,535.41H268.68a.34.34,0,0,1-.34-.34v-1.54a.34.34,0,0,1,.34-.34h32.21a.34.34,0,0,1,.33.34v1.54A.34.34,0,0,1,300.89,535.41Zm.33-9.35v-1.54a.34.34,0,0,0-.33-.34H268.68a.34.34,0,0,0-.34.34v1.54a.34.34,0,0,0,.34.34h32.21A.34.34,0,0,0,301.22,526.06Zm0,3v-1.55a.34.34,0,0,0-.33-.34H268.68a.34.34,0,0,0-.34.34v1.55a.34.34,0,0,0,.34.33h32.21A.33.33,0,0,0,301.22,529.07Zm0,3v-1.54a.34.34,0,0,0-.33-.34H268.68a.34.34,0,0,0-.34.34v1.54a.34.34,0,0,0,.34.34h32.21A.34.34,0,0,0,301.22,532.07Zm0-9v-1.54a.34.34,0,0,0-.33-.34H268.68a.34.34,0,0,0-.34.34v1.54a.34.34,0,0,0,.34.34h32.21A.34.34,0,0,0,301.22,523.06Z"
              transform="translate(-199.5 -264.59)" fill="#fff" fill-opacity="0.5"/>
    </g>
    <g id="pi">
        <path d="M568.8,417.39l-14.74,1c.29,0,.5-1.19.53-3l14.73-1C569.3,416.2,569.08,417.37,568.8,417.39Z"
              transform="translate(-199.5 -264.59)" fill="#a7a9ac" fill-opacity="0.5"
              stroke="#fff" stroke-linecap="square" stroke-linejoin="round" stroke-opacity="0.5"/>
        <polygon points="370.16 72.06 355.43 73.08 334.31 38.6 348.05 38.58 370.16 72.06"
                 fill="#fff" fill-opacity="0.5"
                 stroke="#fff" stroke-linecap="square" stroke-linejoin="round" stroke-opacity="0.5"/>
        <polygon points="369.82 149.83 355.09 150.85 356.07 78.48 370.8 77.46 369.82 149.83"
                 fill="#fff" fill-opacity="0.5"
                 stroke="#fff" stroke-linecap="square" stroke-linejoin="round" stroke-opacity="0.5"/>
        <path d="M570.3,342.05l-14.73,1a16.07,16.07,0,0,0-.64-5.4l14.73-1A16,16,0,0,1,570.3,342.05Z"
              transform="translate(-199.5 -264.59)" fill="#a7a9ac" fill-opacity="0.5"
              stroke="#fff" stroke-linecap="square" stroke-linejoin="round" stroke-opacity="0.5"/>
        <path d="M533.81 303.18 554.93 337.66A16.07 16.07 0 0 1 555.57 343.06L554.57 415.43C554.57 418.66 553.21 418.93 553.82 418.19L536.7 383.71A16.29 16.29 0 0 1 535.07 378.32L533.07 306.95C533.1 303.73 533.43 302.46 533.81 303.18Z"
              transform="translate(-199.5 -264.59)"
              fill="#a7a9ac" fill-opacity="0.5"
              stroke="#fff" stroke-linecap="square" stroke-linejoin="round" stroke-opacity="0.5"/>
    </g>
    <g id="walls">
        <polygon points="37.06 242.1 70.86 142.61 355.15 142.61 399.73 242.1 37.06 242.1"
                 fill="#e6e7e8" fill-opacity="0.4"/>
        <rect x="37.22" y="241.24" width="362.42" height="13.79" fill="#e6e7e8" fill-opacity="0.5"/>
        <polygon id="right"
                 points="326.68 1.96 359.34 55.34 359.34 229.02 326.68 141.94 326.68 1.96"
                 fill="#fff" fill-opacity="0.4"
                 stroke="#fff" stroke-linecap="square" stroke-linejoin="round" stroke-opacity="0"/>
        <rect id="back" x="98.36" y="1" width="228.65" height="141.11" fill="#e6e7e8" fill-opacity="0.4"
              stroke="#fff" stroke-opacity="0"/>
        <polygon id="left" points="98.74 1.96 64.08 55.32 64.08 230.71 98.74 141.94 98.74 1.96"
                 fill="#fff" fill-opacity="0.4"
                 stroke="#fff" stroke-linecap="square" stroke-linejoin="round" stroke-opacity="0"/>
        <polygon id="port_shadow" points="89.98 15.95 89.98 159.38 80.47 184.62 80.47 31.45 89.98 15.95"
                 fill="#e6e7e8" fill-opacity="0.4"
                 stroke="#fff" stroke-linecap="square" stroke-linejoin="round" stroke-opacity="0"/>
    </g>
    <g id="display">
        <polygon points="318.79 164.6 319.28 39.77 336.23 68.02 335.74 193.51 318.79 164.6"
                 fill="#fff" fill-opacity="0.5" stroke="#fff" stroke-opacity="0.5"/>
        <polygon points="330.79 163.6 330.28 39.77 348.23 67.02 347.74 193.51 330.79 164.6"
                 fill="#d1d3d4" fill-opacity="0" stroke="#fff" stroke-opacity="0.5"/>
        <polygon points="319.64 38.43 329.82 37.88 347.74 66.87 337 67.37 319.64 38.43"
                 fill="#fff" fill-opacity="0.5"/>
        <polygon points="337.22 68.36 348.11 67.77 347.62 194.22 336.73 194.81 337.22 68.36"
                 fill="#fff" fill-opacity="0.5"/>
    </g>
    <g id="tube">
        <g id="screws">
            <rect x="285.69" y="179.34" width="8.97" height="1.32" rx="0.31" fill="#fff" fill-opacity="0.5"/>
            <rect x="285.69" y="173.97" width="8.97" height="1.32" rx="0.31" fill="#fff" fill-opacity="0.5"/>
            <rect x="285.69" y="175.76" width="8.97" height="1.32" rx="0.31" fill="#fff" fill-opacity="0.5"/>
            <rect x="285.69" y="177.55" width="8.97" height="1.32" rx="0.31" fill="#fff" fill-opacity="0.5"/>
            <rect x="285.69" y="172.17" width="8.97" height="1.32" rx="0.31" fill="#fff" fill-opacity="0.5"/>
            <rect x="134.7" y="179.34" width="8.97" height="1.32" rx="0.31" fill="#fff" fill-opacity="0.5"/>
            <rect x="134.7" y="173.97" width="8.97" height="1.32" rx="0.31" fill="#fff" fill-opacity="0.5"/>
            <rect x="134.7" y="175.76" width="8.97" height="1.32" rx="0.31" fill="#fff" fill-opacity="0.5"/>
            <rect x="134.7" y="177.55" width="8.97" height="1.32" rx="0.31" fill="#fff" fill-opacity="0.5"/>
            <rect x="134.7" y="172.17" width="8.97" height="1.32" rx="0.31" fill="#fff" fill-opacity="0.5"/>
        </g>
        <path id="cylinder"
              d="M291.64,389.73h236c1.88,5.28-2.71,18.16-2.87,28.83-.14,9.63,4.67,13,2.87,18.08h-236a79.44,79.44,0,0,1,0-46.91Z"
              transform="translate(-199.5 -264.59)"
              fill="#f1f2f2" fill-opacity="0.5"
              stroke="#fff" stroke-linecap="square" stroke-linejoin="round" stroke-opacity="0.5"/>
        <ellipse id="right_end" cx="328.06" cy="148.39" rx="2.74" ry="23.24" fill="#f1f2f2" fill-opacity="0.5"
                 stroke="#fff" stroke-linecap="square" stroke-linejoin="round" stroke-opacity="0.5"/>
        <ellipse id="left_end" cx="91.79" cy="148.39" rx="2.82" ry="23.24" fill="#f1f2f2" fill-opacity="0.5"
                 stroke="#fff" stroke-linecap="square" stroke-linejoin="round" stroke-opacity="0.5"/>
    </g>
    <g id="slides">
        <g id="right-3">
            <path id="SVGID-3"
                  d="M541.3,499.82V425h27.36v74.79l-9.8.07s-4.69-6.39-5-5.71l-3,5.71S541.46,500.21,541.3,499.82Z"
                  transform="translate(-199.5 -264.59)" fill="#a7a9ac" fill-opacity="0.5"/>
            <g clip-path="url(#clip-path-4)">
                <g id="girder">
                    <path d="M543.84,499.87c-1.17,0-1.75,0-2-.06v-74h26.36v73.8l-9,.06c-4.24-5.76-5-5.76-5.2-5.76a.68.68,0,0,0-.53.33l-2.86,5.45C549.53,499.75,546.2,499.87,543.84,499.87Z"
                          transform="translate(-199.5 -264.59)" fill="#fff" fill-opacity="0.5"/>
                    <path d="M567.66,426.33v72.8l-8.3.06c-4.25-5.76-5-5.76-5.45-5.76a1.09,1.09,0,0,0-1,.6c-.49,1-2.08,4-2.72,5.19-1.24,0-4.21.15-6.37.15-.72,0-1.21,0-1.54,0v-73h25.36m1-1H541.3V500.2a8.31,8.31,0,0,0,2.54.17c2.83,0,7-.17,7-.17l3-5.71a.1.1,0,0,1,.09-.06c.72,0,5,5.77,5,5.77l9.8-.08V425.33Z"
                          transform="translate(-199.5 -264.59)" fill="#fff" fill-opacity="0.5"/>
                </g>
                <g id="left_groove">
                    <path d="M554.18,494.14a.48.48,0,0,0-.36-.15h-.07a.48.48,0,0,0-.37.26l-2,3.91V425.83h7.45V499Z"
                          transform="translate(-199.5 -264.59)" fill="#a7a9ac" fill-opacity="0.5"/>
                    <path d="M558.28,426.33V497.7l-3.74-3.91a1,1,0,0,0-.72-.3h-.14a1,1,0,0,0-.75.53l-1.1,2.11v-69.8h6.45m1-1h-8.45V500.2l3-5.71,5.46,5.71V425.33Z"
                          transform="translate(-199.5 -264.59)" fill="#fff" fill-opacity="0.5"/>
                </g>
            </g>
        </g>
        <g id="left-3">
            <path id="SVGID-4"
                  d="M242.65,498.92V448h54.71v51.39c-.09.13-9.49-.08-9.49-.08s-2.87-4.24-3-4.27c-.45-.08-6,3.78-6,3.78l-8.81.05-9.8.05s-4.69-4.35-5-3.88l-3,3.88S242.81,499.19,242.65,498.92Z"
                  transform="translate(-199.5 -264.59)" fill="#fff" fill-opacity="0.5"/>
            <g clip-path="url(#clip-path-5)">
                <g id="girder-2">
                    <path d="M295.94,499.19c-2.29,0-6.69-.09-7.8-.11-2.85-4.22-3-4.24-3.22-4.28h0c-.29,0-1,.16-6.22,3.77l-8.66.06-9.6.05c-2-1.82-4.4-3.92-5.14-3.92a.75.75,0,0,0-.49.23c-.53.7-2.32,3-2.84,3.69-.92,0-4.34.11-6.74.11-1.14,0-1.73,0-2,0v-50h53.71v50.42Z"
                          transform="translate(-199.5 -264.59)" fill="#fff" fill-opacity="0.5"/>
                    <path d="M270,449.26h26.35v49.43h-.42c-2.13,0-6.11-.08-7.53-.11-2.83-4.18-2.92-4.19-3.41-4.27l-.18,0h0c-.32,0-.88,0-6.31,3.79l-8.5.05-9.4,0c-4.26-3.91-5-3.91-5.34-3.91a1.09,1.09,0,0,0-.89.43l-2.69,3.5c-1.17,0-4.27.1-6.49.1h-1.54v-49H270m0-1H242.65v50.92a12.21,12.21,0,0,0,2.54.11c2.83,0,7-.11,7-.11s2.36-3.06,3-3.89a.12.12,0,0,1,.09,0c.72,0,4.95,3.92,4.95,3.92l9.8-.05,8.81-.06s5.45-3.78,6-3.78h0c.17,0,3,4.28,3,4.28s5.42.12,8.07.12a8,8,0,0,0,1.42-.05V448.26H270Z"
                          transform="translate(-199.5 -264.59)" fill="#fff" fill-opacity="0.5"/>
                </g>
                <g id="right_groove">
                    <path d="M279.52,448.76H287v48.79L285.25,495a.52.52,0,0,0-.42-.22.46.46,0,0,0-.27.09l-5,3.36Z"
                          transform="translate(-199.5 -264.59)" fill="#a7a9ac" fill-opacity="0.5"/>
                    <path d="M286.47,449.26v46.67l-.81-1.2a1,1,0,0,0-1.38-.27L280,497.31V449.26h6.45m1-1H279v50.92l5.81-3.89,2.64,3.89V448.26Z"
                          transform="translate(-199.5 -264.59)" fill="#fff" fill-opacity="0.5"/>
                </g>
                <g id="left_groove-2">
                    <path d="M255.46,494.89a.46.46,0,0,0-.29-.1.51.51,0,0,0-.4.2l-2.09,2.72V448.76h7.45v49.45Z"
                          transform="translate(-199.5 -264.59)" fill="#a7a9ac" fill-opacity="0.5"/>
                    <path d="M259.63,449.26v48l-3.88-2.76a1,1,0,0,0-.58-.19,1,1,0,0,0-.79.39l-1.2,1.56v-47h6.45m1-1h-8.45v50.92l3-3.89,5.46,3.89V448.26Z"
                          transform="translate(-199.5 -264.59)" fill="#fff" fill-opacity="0.5"/>
                </g>
            </g>
        </g>
        <g id="cap">
            <rect x="39.79" y="160.31" width="61.44" height="23.73" fill="#fff" fill-opacity="0.5"/>
            <path d="M300.22,425.4v22.73H239.79V425.4h60.43m1-1H238.79v24.73h62.43V424.4Z"
                  transform="translate(-199.5 -264.59)" fill="#fff" fill-opacity="0.5"/>
        </g>
        <g id="coins">
            <path d="M255.84,444.78a7.25,7.25,0,1,1,7.24-7.25A7.25,7.25,0,0,1,255.84,444.78Zm28.33-.22a7.25,7.25,0,1,1,7.25-7.24A7.25,7.25,0,0,1,284.17,444.56Z"
                  transform="translate(-199.5 -264.59)" fill="#d1d3d4" fill-opacity="0.5"/>
            <path d="M284.17,430.57a6.75,6.75,0,1,1-6.74,6.75,6.76,6.76,0,0,1,6.74-6.75m-28.33.22a6.75,6.75,0,1,1-6.74,6.74,6.75,6.75,0,0,1,6.74-6.74m28.33-1.22a7.75,7.75,0,1,0,7.75,7.75,7.75,7.75,0,0,0-7.75-7.75Zm-28.33.22a7.75,7.75,0,1,0,7.74,7.74,7.74,7.74,0,0,0-7.74-7.74Z"
                  transform="translate(-199.5 -264.59)" fill="#fff" fill-opacity="0.5"/>
        </g>
    </g>
    <g id="solenoid">
        <path id="tube-2"
              d="M211.82,464c-9.56,5.14-13.57,14.2-11.12,19.94,1.88,4.4,7.46,6.67,11.62,7.12,6.23.67,8.8-2.81,15-3.56,4.3-.52,10.45.26,18.45,6.09"
              transform="translate(-199.5 -264.59)" fill="none" fill-opacity="0.5"
              stroke="#fff" stroke-linecap="square" stroke-linejoin="round" stroke-opacity="0.5"/>
        <path id="body"
              d="M13.73,151.69H36.84a1.39,1.39,0,0,1,1.39,1.39v48.65a2.41,2.41,0,0,1-2.41,2.41H14.73a2.41,2.41,0,0,1-2.41-2.41V153.1A1.4,1.4,0,0,1,13.73,151.69Z"
              fill="#e6e7e8" fill-opacity="0.5"
              stroke="#fff" stroke-linecap="square" stroke-linejoin="round" stroke-opacity="0.5"/>
        <g id="holder">
            <path d="M224.59,451.52a35.79,35.79,0,0,1-13.71-2.73V425a67.91,67.91,0,0,0,13.7,1.4h1.26A68.6,68.6,0,0,0,238.29,425v23.78a35.83,35.83,0,0,1-12.47,2.71Z"
                  transform="translate(-199.5 -264.59)" fill="#fff" fill-opacity="0.5"/>
            <path d="M211.38,425.62a68.23,68.23,0,0,0,13.21,1.29h1.26a69.44,69.44,0,0,0,11.94-1.28v22.84a35.58,35.58,0,0,1-12,2.54l-1.21,0a35.29,35.29,0,0,1-13.21-2.56V425.62m27.41-1.22a68.63,68.63,0,0,1-13,1.5h-1.24a68.09,68.09,0,0,1-14.21-1.51v24.73A36.69,36.69,0,0,0,224.59,452l1.24,0a36.45,36.45,0,0,0,13-2.86V424.4Z"
                  transform="translate(-199.5 -264.59)" fill="#fff" fill-opacity="0.5"/>
        </g>
        <path id="cap-2"
              d="M13.6,151.69H37.19a1,1,0,0,1,1,1v5.33a0,0,0,0,1,0,0H12.32a0,0,0,0,1,0,0V153A1.28,1.28,0,0,1,13.6,151.69Z"
              fill="#d1d3d4" fill-opacity="0.5"
              stroke="#fff" stroke-linecap="square" stroke-linejoin="round" stroke-opacity="0.5"/>
        <line id="groove" x1="12.32" y1="198.15" x2="38.23" y2="198.15" fill="#e6e7e8" fill-opacity="0.5"
              stroke="#fff" stroke-linecap="square" stroke-linejoin="round" stroke-opacity="0.5"/>
    </g>
    <g id="water">
        <path id="stand"
              d="M281.06,413.53s-5.25,2.25-4.31,5.62,4.31,5.81,4.31,5.81H259s3.38-2.44,4.31-5.81-4.31-5.62-4.31-5.62m25.95-13.66H255.11v13.66H284.9Z"
              transform="translate(-199.5 -264.59)" fill="#fff" fill-opacity="0.5"
              stroke="#fff" stroke-linecap="square" stroke-linejoin="round" stroke-opacity="0.5"/>
        <g id="stopper">
            <path d="M270,342.32c-3,0-11.13-.28-13.2-.36V331.49l-1.92-13.55h30.23l-1.91,13.48V342C281.13,342,273,342.32,270,342.32Z"
                  transform="translate(-199.5 -264.59)" fill="#fff" fill-opacity="0.5"/>
            <path d="M284.54,318.44l-1.83,12.91a.61.61,0,0,0,0,.14v10c-2.63.09-9.94.34-12.69.34s-10.07-.25-12.7-.34v-10a.61.61,0,0,0,0-.14l-1.83-12.91h29.07m1.16-1H254.31l2,14.05v11s10.27.37,13.7.37,13.69-.37,13.69-.37v-11l2-14.05Z"
                  transform="translate(-199.5 -264.59)" fill="#fff" fill-opacity="0.5"/>
        </g>
        <g id="glass" opacity="0.5">
            <path d="M270,401.41c-3.26,0-12.22-.3-14.4-.37V334c2.24.07,11.17.33,14.4.33s12.15-.26,14.39-.33v67C282.22,401.11,273.26,401.41,270,401.41Z"
                  transform="translate(-199.5 -264.59)" fill="#e6e7e8" fill-opacity="0.5"/>
            <path d="M256.11,334.55c2.86.09,10.87.32,13.9.32s11-.23,13.89-.32v66c-2.79.1-10.85.35-13.89.35s-11.11-.25-13.9-.35v-66m28.79-1s-11.17.35-14.89.35-14.9-.35-14.9-.35v68s11.15.38,14.9.38,14.89-.38,14.89-.38v-68Z"
                  transform="translate(-199.5 -264.59)" fill="#fff" fill-opacity="0.5"/>
        </g>
        <g id="glass-2">
            <path d="M270,401.41c-3.26,0-12.22-.3-14.4-.37V334c2.24.07,11.17.33,14.4.33s12.15-.26,14.39-.33v67C282.22,401.11,273.26,401.41,270,401.41Z"
                  transform="translate(-199.5 -264.59)" fill="#fff" fill-opacity="0.5"/>
            <path d="M256.11,334.55c2.86.09,10.87.32,13.9.32s11-.23,13.89-.32v66c-2.79.1-10.85.35-13.89.35s-11.11-.25-13.9-.35v-66m28.79-1s-11.17.35-14.89.35-14.9-.35-14.9-.35v68s11.15.38,14.9.38,14.89-.38,14.89-.38v-68Z"
                  transform="translate(-199.5 -264.59)" fill="#fff" fill-opacity="0.5"/>
        </g>
    </g>
</svg>
