<svg id="mouse" xmlns="http://www.w3.org/2000/svg" viewBox="0 0 402.46 177.65">
    <path id="path"
          fill="#e6e7e8" fill-opacity="0.5" fill-rule="evenodd"
          stroke="#fff" stroke-miterlimit="10" stroke-opacity="0.5"
          transform="translate(-198.04 -311.19)"
          d="M599.91,449.16c-17.42-34.9-25.29-34.13-53.74-54.57-5.55-7.64-6.24-20.2-13.74-25.83-12.27-9.35-31.76.81-26.25,15.83,12.09-13.22,25,.28,32.5,7.5v.41c-25.17-23.76-42.73,6.86-24.17,18.33v.42c-7.88-1.41-12.29-7.42-12.91-14.58-34,1.45-67.83-13.75-101.64-9.17-32.14,3.94-67.37,18-81.24,48.33-32.83-3.7-51.22-29.07-65.4-55.82C242,353.37,230.7,323.49,202.5,311.69H200c40.18,21.94,41.71,87.46,76.23,113.3,11.59,11.14,23.44,18.82,39.58,20,16.71,16.34,34.78,33.38,55.82,42.91,1-.1,1.17-.08,1.67-.42h.41a9.57,9.57,0,0,1,.84-5l5.83-.41c.43,4.08,3.23,5.09,7.08,4.58-1-4.17-4.17-5.73-6.67-8.33a17,17,0,0,0-8.74,2.91c-6.23-.1-6.53-3.73-10-6.25-3.48-2.14-7.72-3-9.58-7.08v-.83c18.43,7.65,43.33,4.4,67.07,4.16,18.37.1,35.91,6,53.32,2.5,15.82-4.06,24.29-4.22,31.66,11.67.9-4,3.33.26,5.41,1.25,2.92.88,2.18-1.39,5,1.66,1.51-.15,1.88-.14,2.08-1.66,2.4.06,3,0,3.34-2.08a12,12,0,0,1,5.41,3.74,5.72,5.72,0,0,0,3.34-1.25V485l3.74-.41c-.05-1.44-.54-1.77-.83-2.92-8-1.32-18.26,2.22-20.41-6.67.14-4.55,2.75-6.3,4.58-9.16,11.24-2.61,24.69-6.06,38.33-5.83,7.92.26,19.24,8.75,23.74,1.66a3.48,3.48,0,0,1,.42,2.09C586.29,464.88,601.27,456.84,599.91,449.16Zm-28.32-11.25c-5.42,2.47-10.5-1.24-11.25-7.08a12.8,12.8,0,0,1,6.66-5.42l3.34.42c2.54,2.52,4.29,3.3,4.16,8.75Z"/>
</svg>
