<svg id="pc" xmlns="http://www.w3.org/2000/svg" viewBox="0 0 432 250.6">
    <path id="frame"
          fill="#F1F2F2" fill-opacity="0.2"
          stroke="#fff" stroke-linejoin="bevel" stroke-miterlimit="10" stroke-opacity="0.5"
          d="M7.6,202c-3.9,0-7.1-3.2-7.1-7.1V7.6 c0-3.9,3.2-7.1,7.1-7.1h289.9c3.9,0,7.1,3.2,7.1,7.1v187.2c0,3.9-3.2,7.1-7.1,7.1H7.6z M22,18.1c-2.6,0-4.7,2.1-4.7,4.7l0,0v156.9 c0,2.6,2.1,4.6,4.7,4.6h261.1c2.6,0,4.6-2.1,4.6-4.6V22.8c0-2.6-2.1-4.7-4.6-4.7H22z"/>
    <path id="stand"
          fill="#E6E7E8" fill-opacity="0.2"
          stroke="#fff" stroke-linejoin="bevel" stroke-opacity="0.5" stroke-width="0.97"
          d="M172.6,202.5 c1,19,27,34.5,42.9,42.3c1.4,0.7,2,2.3,1.3,3.8c-0.5,1-1.5,1.6-2.6,1.6H90.9c-1.6,0-2.8-1.3-2.8-2.8c0-1.1,0.6-2.1,1.6-2.5 c15.9-7.8,41.8-23.2,42.9-42.3"/>
    <path id="screen"
          fill="#FFFFFF" fill-opacity="0.3"
          stroke="#fff" stroke-linejoin="bevel" stroke-opacity="0.5" stroke-width="0.97"
          d="M283.1,18.6H22 c-2.3,0-4.2,1.9-4.2,4.1c0,0,0,0,0,0v156.9c0,2.3,1.9,4.2,4.1,4.2c0,0,0,0,0,0h261.1c2.3,0,4.2-1.9,4.2-4.2v0V22.8 C287.3,20.5,285.4,18.6,283.1,18.6z"/>
    <path id="tower"
          fill="#F1F2F2" fill-opacity="0.2"
          stroke="#fff" stroke-miterlimit="10" stroke-opacity="0.5"
          d="M323.1,249.6c-1,0-1.9-0.8-1.9-1.8V4.7 c0-2.3,1.9-4.2,4.2-4.2h101.9c2.3,0,4.2,1.9,4.2,4.2v243.1c0,1-0.8,1.8-1.8,1.8L323.1,249.6z"/>
    <path id="usb"
          fill="#E6E7E8" fill-opacity="0.2"
          stroke="#fff" stroke-linejoin="round" stroke-opacity="0.5" stroke-width="0.65"
          d="M403.1,87.9h-6.7V71.6h6.7V87.9z M412.8,71.6h-6.6v16.3h6.6V71.6z M422.6,71.6h-6.7v16.3h6.7V71.6z"/>
    <path id="cd"
          fill="#E6E7E8" fill-opacity="0.2"
          stroke="#fff" stroke-linejoin="round" stroke-opacity="0.5" stroke-width="0.65"
          d="M424.8,54.3h-96.5 c-0.6,0-1.1-0.5-1.1-1.1v0v-7.9c0-0.6,0.5-1.1,1.1-1.1l0,0h96.5c0.6,0,1.1,0.5,1.1,1.1c0,0,0,0,0,0v7.9 C425.9,53.7,425.4,54.3,424.8,54.3C424.8,54.3,424.8,54.3,424.8,54.3z M320.9,38.9h110.8 M320.9,64.4h110.8 M403.7,58.8v-0.3 c0-0.1,0.1-0.2,0.2-0.2h10.8c0.1,0,0.2,0.1,0.2,0.2v0.3c0,0.1-0.1,0.2-0.2,0.2h-10.8C403.7,58.9,403.7,58.9,403.7,58.8L403.7,58.8z"/>
</svg>
